<svg width="393" height="40" viewBox="0 0 393 40" fill="none" xmlns="http://www.w3.org/2000/svg">
<rect width="393" height="40" fill="#FFF500"/>
<g clip-path="url(#clip0_107_5046)">
<path d="M188.419 24.5799V14.8365H191.064V18.6425H194.566V14.8365H197.211V24.5799H194.566V20.7739H191.064V24.5799H188.419Z" fill="#1400FF"/>
<path d="M178.955 16.9679V14.8365H187.424V16.9679H184.493V24.5799H181.886V16.9679H178.955Z" fill="#1400FF"/>
<path d="M177.968 14.8365V24.5799H175.323V14.8365H177.968Z" fill="#1400FF"/>
<path d="M163.144 24.5799L160.27 14.8365H163.22L164.552 20.831H164.628L166.207 14.8365H168.529L170.109 20.85H170.185L171.517 14.8365H174.467L171.593 24.5799H169.062L167.406 19.1373H167.33L165.675 24.5799H163.144Z" fill="#1400FF"/>
<path d="M151.924 24.5799H148.175V14.8365H151.886C152.889 14.8365 153.754 15.0316 154.484 15.4217C155.217 15.8086 155.781 16.3669 156.178 17.0963C156.577 17.8227 156.777 18.6933 156.777 19.7082C156.777 20.7231 156.579 21.5953 156.182 22.3248C155.786 23.0511 155.224 23.6094 154.498 23.9995C153.772 24.3864 152.914 24.5799 151.924 24.5799ZM150.821 22.3343H151.829C152.311 22.3343 152.722 22.2566 153.061 22.1012C153.404 21.9458 153.664 21.6778 153.842 21.2972C154.022 20.9166 154.113 20.3869 154.113 19.7082C154.113 19.0295 154.021 18.4998 153.837 18.1192C153.656 17.7386 153.39 17.4706 153.038 17.3152C152.689 17.1598 152.261 17.0821 151.753 17.0821H150.821V22.3343Z" fill="#1400FF"/>
<path d="M139.842 24.5799V14.8365H146.864V16.9679H142.487V18.6425H146.502V20.7739H142.487V22.4485H146.845V24.5799H139.842Z" fill="#1400FF"/>
<path d="M135.82 18.0526C135.779 17.8845 135.714 17.737 135.625 17.6101C135.536 17.4801 135.425 17.3707 135.292 17.2819C135.162 17.1899 135.01 17.1217 134.835 17.0773C134.664 17.0297 134.475 17.0059 134.269 17.0059C133.825 17.0059 133.446 17.1122 133.132 17.3247C132.821 17.5372 132.583 17.8433 132.419 18.2429C132.257 18.6425 132.176 19.1246 132.176 19.6892C132.176 20.2601 132.254 20.7485 132.409 21.1545C132.564 21.5604 132.796 21.8713 133.104 22.0869C133.411 22.3026 133.793 22.4104 134.25 22.4104C134.653 22.4104 134.988 22.3518 135.254 22.2344C135.524 22.1171 135.725 21.9506 135.858 21.7349C135.991 21.5192 136.058 21.2655 136.058 20.9737L136.515 21.0213H134.288V19.1373H138.608V20.4884C138.608 21.3765 138.419 22.1361 138.042 22.7673C137.668 23.3953 137.151 23.8773 136.491 24.2135C135.834 24.5466 135.081 24.7131 134.231 24.7131C133.283 24.7131 132.45 24.5117 131.733 24.1089C131.017 23.7061 130.457 23.132 130.054 22.3867C129.654 21.6413 129.455 20.7548 129.455 19.7272C129.455 18.9216 129.577 18.208 129.821 17.5863C130.068 16.9647 130.411 16.4398 130.849 16.0116C131.286 15.5803 131.792 15.2552 132.366 15.0363C132.94 14.8143 133.556 14.7033 134.212 14.7033C134.789 14.7033 135.325 14.7858 135.82 14.9507C136.318 15.1125 136.757 15.344 137.138 15.6453C137.522 15.9434 137.831 16.2971 138.066 16.7062C138.3 17.1154 138.443 17.5641 138.494 18.0526H135.82Z" fill="#1400FF"/>
<path d="M125.471 18.0526C125.43 17.8845 125.365 17.737 125.276 17.6101C125.188 17.4801 125.077 17.3707 124.943 17.2819C124.813 17.1899 124.661 17.1217 124.487 17.0773C124.315 17.0297 124.127 17.0059 123.921 17.0059C123.477 17.0059 123.097 17.1122 122.784 17.3247C122.473 17.5372 122.235 17.8433 122.07 18.2429C121.908 18.6425 121.827 19.1246 121.827 19.6892C121.827 20.2601 121.905 20.7485 122.06 21.1545C122.216 21.5604 122.447 21.8713 122.755 22.0869C123.063 22.3026 123.445 22.4104 123.902 22.4104C124.304 22.4104 124.639 22.3518 124.905 22.2344C125.175 22.1171 125.376 21.9506 125.51 21.7349C125.643 21.5192 125.709 21.2655 125.709 20.9737L126.166 21.0213H123.94V19.1373H128.259V20.4884C128.259 21.3765 128.071 22.1361 127.693 22.7673C127.319 23.3953 126.802 23.8773 126.142 24.2135C125.486 24.5466 124.732 24.7131 123.882 24.7131C122.934 24.7131 122.102 24.5117 121.385 24.1089C120.668 23.7061 120.108 23.132 119.705 22.3867C119.306 21.6413 119.106 20.7548 119.106 19.7272C119.106 18.9216 119.228 18.208 119.472 17.5863C119.72 16.9647 120.062 16.4398 120.5 16.0116C120.938 15.5803 121.443 15.2552 122.018 15.0363C122.592 14.8143 123.207 14.7033 123.863 14.7033C124.441 14.7033 124.977 14.7858 125.471 14.9507C125.969 15.1125 126.409 15.344 126.789 15.6453C127.173 15.9434 127.482 16.2971 127.717 16.7062C127.952 17.1154 128.094 17.5641 128.145 18.0526H125.471Z" fill="#1400FF"/>
<path d="M117.92 19.7082C117.92 20.7929 117.709 21.7079 117.287 22.4533C116.865 23.1954 116.296 23.7584 115.579 24.1422C114.863 24.5228 114.063 24.7131 113.182 24.7131C112.294 24.7131 111.491 24.5212 110.774 24.1374C110.061 23.7505 109.493 23.1859 109.071 22.4438C108.652 21.6984 108.443 20.7866 108.443 19.7082C108.443 18.6235 108.652 17.71 109.071 16.9679C109.493 16.2225 110.061 15.6596 110.774 15.279C111.491 14.8952 112.294 14.7033 113.182 14.7033C114.063 14.7033 114.863 14.8952 115.579 15.279C116.296 15.6596 116.865 16.2225 117.287 16.9679C117.709 17.71 117.92 18.6235 117.92 19.7082ZM115.199 19.7082C115.199 19.1246 115.121 18.633 114.966 18.2334C114.813 17.8306 114.587 17.5261 114.285 17.3199C113.987 17.1106 113.619 17.0059 113.182 17.0059C112.744 17.0059 112.374 17.1106 112.073 17.3199C111.775 17.5261 111.548 17.8306 111.393 18.2334C111.241 18.633 111.164 19.1246 111.164 19.7082C111.164 20.2918 111.241 20.785 111.393 21.1878C111.548 21.5874 111.775 21.8919 112.073 22.1012C112.374 22.3074 112.744 22.4104 113.182 22.4104C113.619 22.4104 113.987 22.3074 114.285 22.1012C114.587 21.8919 114.813 21.5874 114.966 21.1878C115.121 20.785 115.199 20.2918 115.199 19.7082Z" fill="#1400FF"/>
<path d="M96 14.8365H99.2922L101.557 20.3552H101.671L103.936 14.8365H107.228V24.5799H104.64V18.947H104.563L102.394 24.5038H100.834L98.6642 18.9089H98.5881V24.5799H96V14.8365Z" fill="#1400FF"/>
<path d="M289.961 25.0068V15.3211H297V17.4398H292.613V19.1046H296.638V21.2233H292.613V22.8881H296.981V25.0068H289.961Z" fill="#1400FF"/>
<path d="M277.45 15.3211H280.75L283.02 20.8072H283.134L285.404 15.3211H288.704V25.0068H286.11V19.4073H286.034L283.859 24.9312H282.295L280.12 19.3694H280.044V25.0068H277.45V15.3211Z" fill="#1400FF"/>
<path d="M274.722 25.1582C274.353 25.1582 274.037 25.0305 273.773 24.7751C273.512 24.5166 273.383 24.2029 273.387 23.834C273.383 23.4745 273.512 23.1671 273.773 22.9117C274.037 22.6563 274.353 22.5287 274.722 22.5287C275.072 22.5287 275.38 22.6563 275.647 22.9117C275.917 23.1671 276.054 23.4745 276.057 23.834C276.054 24.0799 275.989 24.3037 275.862 24.5055C275.738 24.7042 275.575 24.8634 275.375 24.9832C275.175 25.0999 274.957 25.1582 274.722 25.1582Z" fill="#1400FF"/>
<path d="M269.403 18.5181C269.362 18.351 269.297 18.2044 269.208 18.0783C269.119 17.949 269.008 17.8403 268.874 17.752C268.744 17.6605 268.591 17.5928 268.416 17.5486C268.245 17.5013 268.055 17.4777 267.849 17.4777C267.404 17.4777 267.024 17.5833 266.709 17.7945C266.397 18.0058 266.159 18.31 265.994 18.7073C265.831 19.1046 265.75 19.5838 265.75 20.145C265.75 20.7126 265.828 21.1981 265.984 21.6017C266.14 22.0053 266.372 22.3143 266.68 22.5287C266.989 22.743 267.372 22.8502 267.83 22.8502C268.233 22.8502 268.569 22.7919 268.836 22.6753C269.106 22.5586 269.308 22.3931 269.442 22.1787C269.575 21.9643 269.642 21.712 269.642 21.422L270.1 21.4693H267.868V19.5964H272.198V20.9396C272.198 21.8224 272.009 22.5775 271.631 23.205C271.255 23.8292 270.737 24.3085 270.076 24.6427C269.418 24.9737 268.663 25.1393 267.811 25.1393C266.86 25.1393 266.025 24.9391 265.307 24.5386C264.588 24.1382 264.027 23.5675 263.623 22.8266C263.223 22.0857 263.023 21.2044 263.023 20.1829C263.023 19.382 263.145 18.6726 263.39 18.0547C263.638 17.4367 263.981 16.9149 264.42 16.4892C264.859 16.0604 265.366 15.7373 265.941 15.5197C266.517 15.299 267.133 15.1887 267.792 15.1887C268.37 15.1887 268.907 15.2706 269.403 15.4346C269.903 15.5954 270.343 15.8255 270.724 16.1251C271.109 16.4215 271.419 16.773 271.654 17.1797C271.89 17.5865 272.033 18.0326 272.084 18.5181H269.403Z" fill="#1400FF"/>
<path d="M261.834 20.164C261.834 21.2423 261.622 22.1519 261.2 22.8928C260.777 23.6306 260.206 24.1902 259.488 24.5717C258.769 24.9501 257.968 25.1393 257.084 25.1393C256.194 25.1393 255.389 24.9485 254.671 24.567C253.956 24.1824 253.386 23.6211 252.964 22.8834C252.544 22.1424 252.334 21.236 252.334 20.164C252.334 19.0857 252.544 18.1776 252.964 17.4398C253.386 16.6989 253.956 16.1393 254.671 15.7609C255.389 15.3794 256.194 15.1887 257.084 15.1887C257.968 15.1887 258.769 15.3794 259.488 15.7609C260.206 16.1393 260.777 16.6989 261.2 17.4398C261.622 18.1776 261.834 19.0857 261.834 20.164ZM259.106 20.164C259.106 19.5838 259.028 19.0951 258.872 18.6979C258.72 18.2974 258.492 17.9948 258.19 17.7898C257.892 17.5817 257.523 17.4777 257.084 17.4777C256.645 17.4777 256.275 17.5817 255.973 17.7898C255.674 17.9948 255.447 18.2974 255.291 18.6979C255.138 19.0951 255.062 19.5838 255.062 20.164C255.062 20.7441 255.138 21.2344 255.291 21.6348C255.447 22.0321 255.674 22.3347 255.973 22.5428C256.275 22.7478 256.645 22.8502 257.084 22.8502C257.523 22.8502 257.892 22.7478 258.19 22.5428C258.492 22.3347 258.72 22.0321 258.872 21.6348C259.028 21.2344 259.106 20.7441 259.106 20.164Z" fill="#1400FF"/>
<path d="M239.861 15.3211H243.161L245.431 20.8072H245.546L247.816 15.3211H251.116V25.0068H248.521V19.4073H248.445L246.27 24.9312H244.706L242.532 19.3694H242.455V25.0068H239.861V15.3211Z" fill="#1400FF"/>
<path d="M230.574 25.8775C230.394 25.5358 230.105 25.1668 229.774 24.7841C230.05 23.9913 230.174 23.3216 230.16 22.8842C230.16 22.8432 230.16 22.7886 230.16 22.7339C230.16 21.9138 230.133 20.2053 228.989 17.1028C228.823 16.6517 228.589 16.2143 228.313 15.7906C228.506 14.8612 228.603 13.5218 228.561 12.0183C228.548 11.3623 228.437 9.13442 228.01 8.41002C227.886 8.205 227.734 8.08199 227.542 8.04099C227.349 7.99999 226.825 7.90431 224.661 9.03874C223.462 9.66746 222.125 10.5012 220.967 11.3349C220.347 11.2939 219.589 11.2666 218.624 11.2666C217.66 11.2666 216.86 11.2939 216.226 11.3486C215.055 10.5012 213.69 9.65379 212.464 9.01141C211.885 8.69705 210.314 7.87698 209.597 8.01365C209.404 8.05466 209.239 8.17767 209.129 8.38269C208.688 9.10708 208.591 11.3349 208.577 11.991C208.536 13.5901 208.632 15.0116 208.867 15.941C208.632 16.3237 208.426 16.7201 208.288 17.1301C207.144 20.2327 207.13 21.9412 207.116 22.7612C207.116 22.8159 207.116 22.8569 207.116 22.9116C207.116 23.3353 207.213 23.9913 207.488 24.7431C207.13 25.1394 206.813 25.5221 206.634 25.8912C206.289 26.5609 206.193 27.3946 206.358 28.1737C206.551 29.0484 207.075 29.7728 207.819 30.1965C208.343 30.4835 208.908 30.6476 209.473 30.6476C210.245 30.6476 210.989 30.3742 211.609 29.8548C212.491 30.4972 213.47 31.1123 214.531 31.6453C216.24 32.5064 217.742 32.9984 218.666 32.9984C219.575 32.9984 221.078 32.5064 222.787 31.6453C223.82 31.1259 224.771 30.5246 225.64 29.8958C226.246 30.3879 226.949 30.6612 227.721 30.6612C228.3 30.6612 228.892 30.4972 229.416 30.2102C230.16 29.7865 230.684 29.0758 230.877 28.1874C231.042 27.4083 230.946 26.5746 230.601 25.9048L230.574 25.8775ZM228.258 19.4536L228.368 19.481C228.548 19.522 228.658 19.4263 228.658 19.3443C229.14 21.1211 229.154 22.1872 229.168 22.7749C229.168 22.8296 229.168 22.8842 229.168 22.9252C229.168 23.1713 229.099 23.5676 228.989 24.005C228.672 23.718 228.341 23.431 227.996 23.1576C228.148 22.9936 228.272 22.7886 228.272 22.5562V19.4536H228.258ZM225.061 9.95448C226.246 9.32576 226.908 9.09341 227.197 9.03874C227.335 9.40777 227.514 10.4602 227.555 12.0047C227.583 13.0024 227.555 13.9592 227.473 14.7246C226.976 14.1642 226.411 13.6448 225.736 13.1664C224.454 12.2643 223.145 11.7313 222.401 11.5536C223.269 10.9659 224.192 10.4055 225.047 9.95448H225.061ZM209.928 8.99774C210.217 9.05241 210.893 9.28476 212.064 9.91348C212.946 10.3782 213.897 10.9659 214.793 11.5673C214.049 11.7586 212.767 12.278 211.499 13.1664C210.782 13.6721 210.176 14.2325 209.652 14.8339C209.556 14.0412 209.514 13.0297 209.556 11.9637C209.611 10.4192 209.79 9.38044 209.914 8.99774H209.928ZM209.197 17.4581C209.804 15.818 211.099 14.6562 212.078 13.9728C213.181 13.1938 214.393 12.6744 215.096 12.5104C215.813 12.3327 216.86 12.2643 218.611 12.2643C220.375 12.2643 221.436 12.3327 222.139 12.5104C222.842 12.688 224.055 13.2074 225.157 13.9728C226.136 14.6562 227.431 15.818 228.038 17.4581C228.038 17.4581 228.038 17.4718 228.038 17.4855C227.776 17.3624 227.514 17.2531 227.252 17.1438C227.156 17.0207 227.059 16.8977 226.935 16.7747C226.232 16.064 224.413 15.2439 223.875 15.8043C223.765 15.9273 223.917 16.0913 224.137 16.228C224.234 16.2827 224.303 16.3237 224.385 16.3784C223.159 16.187 222.139 16.1597 221.629 16.1597C221.519 16.1597 221.436 16.1597 221.381 16.1597H218.597V16.146H215.84C215.84 16.146 215.827 16.1597 215.813 16.1597C215.758 16.1597 215.675 16.1597 215.565 16.1597C215.069 16.1597 214.104 16.1733 212.946 16.351C213.015 16.31 213.084 16.269 213.153 16.2143C213.387 16.0777 213.539 15.9137 213.415 15.7906C212.891 15.2303 211.058 16.0503 210.355 16.7611C210.259 16.8567 210.176 16.9661 210.093 17.0618C209.776 17.1848 209.459 17.3214 209.142 17.4718C209.142 17.4718 209.142 17.4444 209.142 17.4308L209.197 17.4581ZM218.569 25.6861C216.102 25.6861 214.256 25.3855 213.125 25.1394C213.125 25.0301 213.139 24.9207 213.139 24.8114C213.236 24.8114 213.332 24.8524 213.429 24.8524C213.939 24.8524 214.448 24.7157 214.889 24.4424L214.986 24.374C215.206 24.2374 215.386 24.0597 215.51 23.8273L215.992 22.9799L216.295 23.1849C216.295 23.1849 216.392 23.1849 216.406 23.1576L216.585 22.8159C217.301 23.759 218.17 24.1143 218.556 24.1143C218.666 24.1143 218.831 24.0733 218.997 24.005C218.997 24.005 219.01 24.005 219.024 24.005C219.465 23.841 220.03 23.472 220.54 22.8022C220.54 22.8022 220.54 22.8022 220.54 22.7886L220.733 23.1439C220.733 23.1439 220.802 23.1986 220.83 23.1849L221.202 23.0346L221.67 23.8547C221.794 24.0733 221.974 24.2647 222.194 24.4014L222.291 24.4697C222.732 24.7431 223.242 24.8797 223.751 24.8797C223.82 24.8797 223.889 24.8524 223.958 24.8524C223.958 24.9617 223.972 25.0711 223.972 25.1804C222.649 25.4265 220.513 25.7135 218.487 25.7135L218.569 25.6861ZM223.269 27.791C223.269 27.791 223.159 27.832 223.145 27.7773C223.076 27.422 222.925 26.7249 222.745 26.7522C222.511 26.7932 219.562 27.0256 218.638 27.0256H218.597C217.673 27.0256 214.697 26.7932 214.462 26.7522C214.283 26.7249 214.131 27.422 214.063 27.7773C214.063 27.832 213.966 27.8457 213.939 27.791C213.704 27.2853 213.098 25.8912 213.387 25.7682C213.525 25.8228 213.939 25.8775 214.476 25.9458C216.033 26.1782 217.481 26.2465 218.556 26.2465C219.713 26.2465 220.899 26.1509 221.974 26.0142C222.883 25.9322 223.6 25.8365 223.807 25.7545C224.096 25.8775 223.49 27.2716 223.255 27.7773L223.269 27.791ZM218.611 20.8751C219.41 20.8751 220.003 21.0664 220.209 21.4628C220.402 21.8318 220.306 22.3512 219.948 22.6382C219.934 22.6519 219.906 22.6656 219.892 22.6656C219.879 22.6656 219.851 22.6656 219.837 22.6519C219.782 22.6246 219.727 22.5972 219.658 22.5972C219.631 22.5972 219.589 22.5972 219.562 22.6109C219.355 22.6792 219.327 22.8022 219.203 23.0483C219.079 23.2943 218.969 23.554 218.611 23.554C218.335 23.554 218.17 23.3626 218.087 23.0756C218.004 22.8022 217.894 22.6382 217.77 22.5972C217.729 22.5972 217.687 22.5699 217.646 22.5699C217.577 22.5699 217.508 22.5835 217.467 22.6382C217.453 22.6519 217.425 22.6656 217.398 22.6656C217.37 22.6656 217.357 22.6656 217.343 22.6382C217.122 22.4605 216.778 21.9685 217.067 21.4355C217.301 20.9981 217.825 20.8477 218.624 20.8477L218.611 20.8751ZM218.059 20.2053L218.101 20.1233C218.211 19.932 218.404 19.8226 218.611 19.8226C218.817 19.8226 219.01 19.932 219.121 20.1233L219.162 20.2053C218.955 20.178 218.735 20.1643 218.583 20.1643C218.432 20.1643 218.252 20.1643 218.059 20.1917V20.2053ZM223.82 24.1007C223.448 24.1007 223.076 23.9913 222.759 23.8L222.663 23.7316C222.552 23.6633 222.456 23.5676 222.387 23.4583L220.664 20.465C220.774 20.506 220.885 20.5334 220.995 20.4924C220.995 20.4924 221.877 20.1507 222.194 20.0687C222.511 19.9867 223.09 19.9183 223.683 19.9183C224.275 19.9183 224.813 20.0003 225.075 20.0687L226.094 20.4377C226.26 20.4924 226.48 20.506 226.618 20.3967C226.618 20.3967 226.673 20.3557 226.728 20.301C226.784 20.2464 226.756 20.137 226.715 20.055C226.191 19.1939 224.895 18.5515 223.641 18.5515C221.863 18.5379 221.119 19.1666 220.857 19.44C220.692 19.6176 220.526 19.9047 220.43 20.0687L220.141 19.5493C219.824 19.0026 219.258 18.6746 218.624 18.6746C217.99 18.6746 217.412 19.0026 217.108 19.5493L216.791 20.1097C216.791 20.1097 216.791 20.0687 216.791 20.055C216.695 19.8773 216.543 19.604 216.364 19.4263C216.102 19.1393 215.358 18.5105 213.58 18.5379C212.326 18.5379 211.03 19.1803 210.507 20.0413C210.452 20.1233 210.438 20.2464 210.493 20.2874C210.548 20.342 210.603 20.383 210.603 20.383C210.741 20.4924 210.962 20.4787 211.127 20.424L212.147 20.055C212.409 19.973 212.946 19.9047 213.539 19.9047C214.131 19.9047 214.71 19.973 215.027 20.055C215.344 20.137 216.226 20.4787 216.226 20.4787C216.364 20.5197 216.502 20.4787 216.612 20.424L214.876 23.4446C214.807 23.554 214.724 23.6496 214.6 23.718L214.504 23.7863C214.187 23.9777 213.814 24.087 213.442 24.087C213.263 24.087 213.084 24.0597 212.905 24.0187L212.615 23.9367C212.381 23.8683 212.147 23.7863 211.926 23.677L209.859 22.6792C209.859 22.6792 209.763 22.5835 209.763 22.5289V18.0185C210.7 17.5811 211.775 17.2668 213.001 17.0891C213.69 16.9797 214.407 16.9387 215.151 16.9114L215.413 17.4991C215.455 17.5811 215.523 17.6221 215.62 17.6221H221.932C222.015 17.6221 222.084 17.5811 222.125 17.4991L222.428 16.9114C223.049 16.9387 223.669 16.9797 224.261 17.0754C225.474 17.2668 226.563 17.5811 227.5 18.0048V22.5152C227.5 22.5152 227.459 22.6382 227.404 22.6656L225.336 23.6633C225.116 23.7726 224.882 23.8547 224.647 23.923L224.358 24.005C224.179 24.046 224 24.0733 223.82 24.0733V24.1007ZM208.095 22.7612C208.095 22.1872 208.109 21.1211 208.591 19.3443C208.605 19.4263 208.715 19.5083 208.88 19.4673L209.018 19.44V22.5425C209.018 22.7612 209.115 22.9526 209.253 23.1029C208.922 23.3763 208.577 23.6496 208.274 23.923C208.164 23.513 208.109 23.1439 208.109 22.8979C208.109 22.8432 208.109 22.8022 208.109 22.7476L208.095 22.7612ZM209.459 29.9232C209.018 29.9232 208.563 29.8002 208.15 29.5678C206.91 28.8707 206.717 27.2443 207.24 26.2055C207.64 25.4128 208.701 24.415 209.845 23.5266L211.596 24.374C211.857 24.497 212.133 24.6064 212.409 24.6747H212.436C212.367 26.3285 212.188 28.0917 211.651 28.7751C211.03 29.5405 210.245 29.9232 209.446 29.9232H209.459ZM218.638 31.987C217.481 31.987 214.6 30.7706 212.271 29.1168C212.45 28.8707 212.588 28.529 212.712 28.1327C214.076 29.2398 216.199 30.5382 218.611 30.5382C221.023 30.5382 223.159 29.2808 224.496 28.1874C224.62 28.5837 224.758 28.9254 224.923 29.1578C222.608 30.7979 219.782 31.987 218.624 31.987H218.638ZM229.03 29.5678C228.603 29.8002 228.148 29.9368 227.693 29.9368C226.908 29.9368 226.122 29.5678 225.529 28.7751C225.019 28.0917 224.826 26.3422 224.744 24.7021L224.84 24.6747C225.116 24.5927 225.392 24.497 225.653 24.374L227.349 23.554C228.479 24.4424 229.526 25.4265 229.926 26.2055C230.463 27.2443 230.27 28.8707 229.016 29.5678H229.03Z" fill="#1400FF"/>
<path d="M240 15.1329H243.283L245.541 20.6357H245.655L247.913 15.1329H251.195V24.8482H248.615V19.2315H248.539L246.376 24.7723H244.82L242.657 19.1936H242.581V24.8482H240V15.1329Z" fill="#1400FF"/>
</g>
<defs>
<clipPath id="clip0_107_5046">
<rect width="201" height="25" fill="white" transform="translate(96 8)"/>
</clipPath>
</defs>
</svg>
