<svg width="44" height="44" viewBox="0 0 44 44" fill="none" xmlns="http://www.w3.org/2000/svg">
<rect width="44" height="44" rx="22" fill="#FFF500"/>
<path d="M24.0001 21.75C24.5524 21.75 25.0001 22.1977 25.0001 22.75V28.75C25.0001 29.3023 24.5524 29.75 24.0001 29.75C23.4478 29.75 23.0001 29.3023 23.0001 28.75V22.75C23.0001 22.1977 23.4478 21.75 24.0001 21.75Z" fill="#1400FF"/>
<path d="M21.0001 22.75C21.0001 22.1977 20.5524 21.75 20.0001 21.75C19.4478 21.75 19.0001 22.1977 19.0001 22.75V28.75C19.0001 29.3023 19.4478 29.75 20.0001 29.75C20.5524 29.75 21.0001 29.3023 21.0001 28.75V22.75Z" fill="#1400FF"/>
<path fill-rule="evenodd" clip-rule="evenodd" d="M20.6517 10.75H23.3487C23.7728 10.7499 24.1849 10.7498 24.5248 10.7955C24.908 10.847 25.3453 10.9726 25.7085 11.3358C26.0717 11.699 26.1973 12.1363 26.2488 12.5195C26.2945 12.8594 26.2944 13.2715 26.2943 13.6955L26.2943 14.0682C27.0753 14.0681 27.7496 14.0694 28.2958 14.136C28.8896 14.2085 29.4652 14.3711 29.9569 14.7943C30.0704 14.8919 30.1764 14.9979 30.274 15.1113C30.6972 15.6031 30.8597 16.1787 30.9322 16.7725C31.0002 17.329 31.0001 18.0185 31.0001 18.8184L31.0001 18.8777L31.0001 18.8836C31.0003 18.9118 31.0008 19.0068 30.9897 19.0981C30.9747 19.2211 30.9271 19.4611 30.7339 19.6857C30.6981 19.7273 30.6592 19.7661 30.6176 19.8019C30.393 19.9952 30.153 20.0428 30.03 20.0578C29.9387 20.0689 29.8437 20.0684 29.8155 20.0682L29.8096 20.0682H29.553L29.2524 28.4926C29.2219 29.3495 29.1955 30.0894 29.0955 30.6812C28.9881 31.3163 28.7759 31.9216 28.2709 32.4088C27.766 32.896 27.1536 33.0866 26.5151 33.1712C25.92 33.2501 25.1797 33.25 24.3223 33.25H19.6778C18.8204 33.25 18.08 33.2501 17.485 33.1712C16.8465 33.0866 16.2341 32.896 15.7291 32.4088C15.2242 31.9216 15.0119 31.3163 14.9046 30.6812C14.8046 30.0894 14.7782 29.3495 14.7477 28.4926L14.4471 20.0682H14.1906L14.1847 20.0682C14.1564 20.0684 14.0615 20.0689 13.9702 20.0578C13.8472 20.0428 13.6071 19.9952 13.3826 19.8019C13.341 19.7661 13.3021 19.7273 13.2663 19.6857C13.0731 19.4611 13.0255 19.2211 13.0105 19.0981C12.9993 19.0068 12.9999 18.9118 13.0001 18.8836L13.0001 18.8777L13.0001 18.8185C13 18.0186 13 17.3291 13.068 16.7725C13.1405 16.1787 13.303 15.6031 13.7262 15.1113C13.8238 14.9979 13.9298 14.8919 14.0432 14.7943C14.535 14.3711 15.1106 14.2085 15.7044 14.136C16.2507 14.0693 16.925 14.0681 17.7061 14.0682L17.7061 13.6956C17.706 13.2715 17.7059 12.8594 17.7516 12.5195C17.8031 12.1363 17.9286 11.699 18.2919 11.3358C18.6551 10.9726 19.0923 10.847 19.4755 10.7955C19.8155 10.7498 20.2276 10.7499 20.6517 10.75ZM28.9974 18.0625H15.0028C15.0074 17.6222 15.0199 17.288 15.0532 17.0149C15.1017 16.6175 15.1812 16.4866 15.2421 16.4159C15.2747 16.3781 15.31 16.3427 15.3478 16.3102C15.4185 16.2493 15.5494 16.1698 15.9468 16.1213C16.3677 16.0699 16.9337 16.0682 17.8096 16.0682H26.1906C27.0665 16.0682 27.6325 16.0699 28.0534 16.1213C28.4508 16.1698 28.5816 16.2493 28.6524 16.3102C28.6902 16.3427 28.7255 16.3781 28.7581 16.4159C28.8189 16.4866 28.8984 16.6175 28.947 17.0149C28.9803 17.288 28.9927 17.6222 28.9974 18.0625ZM16.4483 20.0682L16.7441 28.357C16.7776 29.2966 16.8013 29.9023 16.8766 30.3479C16.9471 30.7649 17.0417 30.896 17.1179 30.9696C17.1941 31.0431 17.3286 31.133 17.7478 31.1885C18.1958 31.2479 18.802 31.25 19.7422 31.25H24.2579C25.1981 31.25 25.8043 31.2479 26.2523 31.1885C26.6715 31.133 26.8059 31.0431 26.8822 30.9696C26.9584 30.896 27.053 30.7649 27.1235 30.3479C27.1988 29.9024 27.2224 29.2966 27.256 28.357L27.5518 20.0682H16.4483ZM24.2943 13.75V14.0682L19.7061 14.0682V13.75C19.7061 13.2503 19.7082 12.9762 19.7338 12.786L19.7348 12.7787L19.742 12.7777C19.9322 12.7521 20.2064 12.75 20.7061 12.75H23.2943C23.794 12.75 24.0681 12.7521 24.2583 12.7777L24.2656 12.7787L24.2666 12.786C24.2922 12.9762 24.2943 13.2503 24.2943 13.75Z" fill="#1400FF"/>
</svg>
